<svg width="16" height="16" fill="currentColor" viewBox="0 0 24 24" transform="" id="injected-svg"><!--Boxicons v3.0.6 https://boxicons.com | License  https://docs.boxicons.com/free--><path d="M19.5 7h-3c-.17 0-.34.02-.5.05V4.5A2.5 2.5 0 0 0 13.5 2h-3A2.5 2.5 0 0 0 8 4.5v6.55c-.16-.03-.33-.05-.5-.05h-3A2.5 2.5 0 0 0 2 13.5v6A2.5 2.5 0 0 0 4.5 22h15a2.5 2.5 0 0 0 2.5-2.5v-10A2.5 2.5 0 0 0 19.5 7M4 19.5v-6c0-.28.22-.5.5-.5h3c.28 0 .5.22.5.5V20H4.5c-.28 0-.5-.22-.5-.5m6-6v-9c0-.28.22-.5.5-.5h3c.28 0 .5.22.5.5V20h-4zm10 6c0 .28-.22.5-.5.5H16V9.5c0-.28.22-.5.5-.5h3c.28 0 .5.22.5.5z"></path></svg>