<svg width="16" height="16" fill="currentColor" viewBox="0 0 24 24" transform="" id="injected-svg"><!--Boxicons v3.0.6 https://boxicons.com | License  https://docs.boxicons.com/free--><path d="M17 3h-.09c-.21-.58-.76-1-1.41-1h-7c-.65 0-1.2.42-1.41 1H7C4.79 3 3 4.79 3 7v11c0 2.21 1.79 4 4 4h10c2.21 0 4-1.79 4-4V7c0-2.21-1.79-4-4-4m2 15c0 1.1-.9 2-2 2H7c-1.1 0-2-.9-2-2V7c0-1.1.9-2 2-2v1.25c0 .41.34.75.75.75h8.5c.41 0 .75-.34.75-.75V5c1.1 0 2 .9 2 2z"></path><path d="M16 10H8c-.55 0-1 .45-1 1s.45 1 1 1h8c.55 0 1-.45 1-1s-.45-1-1-1M13 14H8c-.55 0-1 .45-1 1s.45 1 1 1h5c.55 0 1-.45 1-1s-.45-1-1-1"></path></svg>