<svg width="16" height="16" fill="currentColor" viewBox="0 0 24 24" transform="" id="injected-svg"><!--Boxicons v3.0.6 https://boxicons.com | License  https://docs.boxicons.com/free--><path d="M15.5 11a2.5 2.5 0 1 0 0 5 2.5 2.5 0 1 0 0-5"></path><path d="M12 13.5c0-.82.4-1.53 1-1.99-.42-.32-.93-.51-1.5-.51a2.5 2.5 0 0 0 0 5c.57 0 1.08-.19 1.5-.51a2.5 2.5 0 0 1-1-1.99"></path><path d="M18 4H6C3.79 4 2 5.79 2 8v8c0 2.21 1.79 4 4 4h12c2.21 0 4-1.79 4-4V8c0-2.21-1.79-4-4-4m2 12c0 1.1-.9 2-2 2H6c-1.1 0-2-.9-2-2V8c0-1.1.9-2 2-2h12c1.1 0 2 .9 2 2z"></path></svg>