<svg width="16" height="16" fill="currentColor" viewBox="0 0 24 24" transform="" id="injected-svg"><!--Boxicons v3.0.6 https://boxicons.com | License  https://docs.boxicons.com/free--><path d="M3 13h1v6c0 1.65 1.35 3 3 3h10c1.65 0 3-1.35 3-3v-6h1c.4 0 .77-.24.92-.62.15-.37.07-.8-.22-1.09l-8.99-9a.996.996 0 0 0-1.41 0l-9.01 9c-.29.29-.37.72-.22 1.09s.52.62.92.62Zm7 7v-3c0-1.1.9-2 2-2s2 .9 2 2v3zm2-15.59 6 6V19c0 .55-.45 1-1 1h-1v-3c0-2.21-1.79-4-4-4s-4 1.79-4 4v3H7c-.55 0-1-.45-1-1v-8.59z"></path></svg>